<svg xmlns="http://www.w3.org/2000/svg" xmlns:xlink="http://www.w3.org/1999/xlink" id="Layer_1" x="0px" y="0px" viewBox="0 0 1000 247.7" style="enable-background:new 0 0 1000 247.7;" xml:space="preserve">
<style type="text/css">
	.st0{fill-rule:evenodd;clip-rule:evenodd;fill:#393E95;}
	.st1{clip-path:url(#XMLID_2_);fill:url(#XMLID_3_);}
	.st2{fill:#F16523;}
	.st3{fill:#2E2F2D;}
</style>
<g id="XMLID_00000034074069096143969910000003299612566730430341_">
	<path id="XMLID_00000139286615758057914870000017722635669706544290_" class="st0" d="M530.1,112.2c0,15.2-9.7,20.7-17.2,20.7   c-12.1,0-19.3-11.6-19.3-29c0-16.7,6.6-30.2,19.7-30.2c8.5,0,16.9,6.9,16.9,20.9V112.2z M400.7,68.4l-1.2-13h-22.1   c0.3,8.5,0.7,17.6,0.7,28.9v67.2h25.5V94.3c0-14.6,9.5-19.9,16.4-19.9c10.9,0,14.6,9.3,14.6,21v56.1h25.5V92.7   c0-26.9-13.6-39.2-31.2-39.2c-14-0.2-23.4,7.8-27.8,14.9H400.7z M339,103.2c0,17.1-6.5,31.4-18.6,31.4c-12.4,0-19-14.1-19-31.2   c0-14.7,5-31.2,19.1-31.2C333.7,72.2,339,88.2,339,103.2 M321.1,53.4c-26,0-45.5,18.3-45.5,50.5c0,31.2,18.6,49.5,44.5,49.5   c21.4,0,44.8-14.1,44.8-50.7C364.9,73.6,348,53.4,321.1,53.4 M238.9,105.6c-1.4,6-2.9,12.8-4,17.9h-0.5c-1.2-5.4-2.9-12.1-4.5-17.9   l-14.1-50.9h-27.9l32.3,89c0.7,1.9,1,3.3,1,4.3c0,1.9-4.3,11.7-12.8,17.8c-4.5,3.1-9.3,5.9-13.5,7.1l6.4,21.6   c5.7-1.1,15.5-4.5,24.8-13.5c10.9-10.9,19-27.8,29.7-58.8l21.7-67.5h-26.6L238.9,105.6z M530.1,0v64.7h-0.3   c-3.8-6.5-11.9-11.2-23.1-11.2c-20.7,0-38.8,17.9-38.8,50.7c0,29.1,15.5,49.2,37.3,49.2c11.7,0,22.1-6,27.1-15.5h0.5l1.2,13.6h22.4   c-0.3-7.1-0.7-17.8-0.7-27.4V0H530.1z"></path>
	<g id="XMLID_00000172421239309596904080000000516165533730284209_">
		<defs>
			<path id="XMLID_00000096767900557577802460000011903203217873762958_" d="M145.1,53.5c-11.9,0.2-24.2,4.1-35.2,15.2     c-2.8,2.8-5.5,6.1-8.1,10L116,98.1c1.3-5.4,6.4-11.7,12.5-16l0.3-0.2c3.8-2.6,8.2-4.2,12.7-4.7c4.5-0.5,9.2,0.1,13.5,1.9     c3.2,1.3,5.3,3.1,5.3,4.8l-0.2,1l-0.3,0.6c-4,5.9-25.8,12.4-22.9,14.8c6.1,5,11.4,7,16.5,7c9,0,17.6-6.1,29.7-12.7     c11.1-6,8.4-10.9,1.8-18.6c-5.1-6-10.6-11-16.2-14.7l-0.1-0.1l0,0c-7.3-4.8-15-7.4-22.8-7.4H145.1z M0,1.9V70     c0,7.3,0.1,9.2,0.7,29.7c0.7,23.8,14.2,46.6,40.8,49.8c1.8,0.2,3.6,0.3,5.5,0.4l1.1,0c23.1,0,34.7-10.6,44.9-28.3l-12.6-16.7     c-6,11.3-16.3,19.5-29.1,19.4c-13.3-0.1-24.7-9.1-24.7-23c0-13.1,12.4-23.1,24.8-23.9c0.5,0,0.9,0,1.4,0     c13.4,0,22.2,12.8,29.9,23.4c8.1,11.2,15.7,23.4,25.2,32.9l0.2,0.2l0.3,0.3c6.8,6.7,14.7,11.9,24.3,14.3c1.3,0.3,2.7,0.6,4.1,0.8     c2.5,0.4,5,0.6,7.7,0.6c25,0.2,47.8-21.6,52.1-45.6l-24.3,3.1c-4.2,10.9-15.3,18.1-26.5,18c-13.4-0.1-19.3-5.9-25.2-13.9     c-2-2.7-3.9-5.6-6.2-8.7c-4.3-6-8.6-12.1-13-18.1c-0.6-0.9-1.3-1.7-1.9-2.6l-0.7-0.9l-0.3-0.3L98,80.3l-0.1-0.1     C82.5,60.3,62.1,50.6,44,52.5c-6.8,0.7-13.2,3-18.9,7v0V1.9H0z"></path>
		</defs>
		<clipPath id="XMLID_2_">
			<use xlink:href="#XMLID_00000096767900557577802460000011903203217873762958_" style="overflow:visible;"></use>
		</clipPath>
		
			<linearGradient id="XMLID_3_" gradientUnits="userSpaceOnUse" x1="-54.7287" y1="455.5054" x2="-49.849" y2="455.5054" gradientTransform="matrix(-34.3807 -0.1049 -0.1049 34.3807 -1653.5114 -15590.085)">
			<stop offset="0" style="stop-color:#393E95"></stop>
			<stop offset="0.1138" style="stop-color:#393E95"></stop>
			<stop offset="0.4071" style="stop-color:#734A71"></stop>
			<stop offset="1" style="stop-color:#F16523"></stop>
		</linearGradient>
		<polygon id="XMLID_00000169525660927517311970000013018314693777242001_" class="st1" points="196.5,150.7 -0.5,150.1 0,1.3     196.9,1.9   "></polygon>
	</g>
	<path id="XMLID_00000005253658014946299270000003511430708149766281_" class="st2" d="M637,150.6c-9.4,0-17.7-1.2-24.8-3.7   c-7-2.5-13-5.9-17.7-10.3c-4.7-4.4-8.4-9.7-10.8-15.8c-2.5-6.1-3.8-12.8-4-20.1h23.9c0.4,4.7,1.6,8.8,3.4,12.2   c1.9,3.4,4.3,6.3,7.2,8.6c2.9,2.3,6.2,3.9,10,5c3.7,1.1,7.7,1.6,12,1.6c4,0,7.7-0.4,10.9-1.2c3.3-0.8,6.1-2,8.5-3.4   c2.3-1.5,4.2-3.3,5.4-5.4c1.3-2.1,1.9-4.5,1.9-7.2c0-2.7-0.6-5-1.9-6.9c-1.3-1.9-3.3-3.6-6.1-5.1c-2.8-1.5-6.4-2.9-11-4.1   c-4.5-1.3-10.1-2.5-16.7-3.9c-7.6-1.7-14.1-3.6-19.5-5.9c-5.4-2.2-9.9-4.9-13.4-7.9c-3.5-3-6.1-6.6-7.8-10.5   c-1.7-4-2.5-8.5-2.5-13.7c0-5.6,1.2-10.7,3.5-15.4c2.3-4.7,5.6-8.7,9.9-12.1c4.3-3.4,9.3-6,15.3-8c5.9-1.9,12.5-2.9,19.7-2.9   c7.5,0,14.4,1,20.7,3.1c6.2,2.1,11.6,5,16.1,8.9c4.5,3.9,8.1,8.6,10.6,14.2c2.6,5.6,4,11.9,4.1,19h-23.7   c-1.7-15-10.8-22.5-27.2-22.5c-8,0-14.1,1.3-18.4,4c-4.2,2.7-6.4,6.4-6.4,11.1c0,1.9,0.5,3.6,1.4,5c0.9,1.4,2.4,2.7,4.4,3.9   c2,1.2,4.6,2.3,7.8,3.3c3.2,1,7,1.9,11.6,2.9c3.9,0.8,8,1.7,12.1,2.7c4.1,1,8.2,2.2,12.2,3.6c4,1.4,7.7,3.1,11.2,5.1   c3.5,2,6.6,4.4,9.3,7.3c2.6,2.8,4.7,6.2,6.3,10c1.5,3.9,2.3,8.4,2.3,13.5c0,6.1-1.2,11.7-3.7,16.7c-2.5,5.1-5.9,9.4-10.4,13   c-4.4,3.6-9.7,6.5-15.9,8.5C650.9,149.6,644.2,150.6,637,150.6"></path>
	<polygon id="XMLID_00000107567621548871219240000013857012149843354039_" class="st2" points="784.5,148.5 756.3,148.5    729.2,106.2 724,111.3 724,148.5 700.5,148.5 700.5,19.4 724,19.4 724,82.3 752.4,53 783.3,53 745.5,90  "></polygon>
	<path id="XMLID_00000065766246450964965760000005359498523196111546_" class="st2" d="M825.5,50.7c6.9,0,13.2,1.1,18.8,3.4   c5.6,2.3,10.3,5.5,14.3,9.8c3.9,4.3,7,9.5,9.1,15.7c2.1,6.2,3.2,13.2,3.2,21.1c0,7.9-1.1,14.9-3.3,21.1c-2.2,6.2-5.2,11.4-9.2,15.7   c-4,4.3-8.7,7.5-14.3,9.7c-5.6,2.2-11.8,3.3-18.6,3.3c-6.7,0-12.9-1.1-18.5-3.3c-5.6-2.2-10.3-5.4-14.3-9.7c-4-4.2-7-9.5-9.2-15.7   c-2.2-6.2-3.3-13.3-3.3-21.3c0-7.8,1.1-14.8,3.2-21.1c2.1-6.2,5.2-11.4,9.2-15.7c4-4.3,8.7-7.5,14.3-9.8   C812.6,51.8,818.7,50.7,825.5,50.7 M825.5,130.6c3.1,0,6-0.6,8.6-1.9c2.6-1.3,4.8-3.1,6.6-5.6c1.9-2.5,3.3-5.6,4.3-9.4   c1-3.7,1.5-8.1,1.5-13.1c0-4.9-0.5-9.3-1.5-13c-1-3.7-2.4-6.9-4.3-9.4c-1.9-2.5-4.1-4.4-6.6-5.7c-2.6-1.3-5.4-1.9-8.6-1.9   c-3.1,0-6,0.6-8.6,1.9c-2.6,1.2-4.8,3.1-6.7,5.7c-1.9,2.5-3.3,5.7-4.3,9.4c-1,3.7-1.5,8.1-1.5,13c0,5,0.5,9.3,1.5,13.1   c1,3.8,2.4,6.9,4.3,9.4c1.9,2.5,4.1,4.4,6.7,5.6C819.5,129.9,822.4,130.6,825.5,130.6"></path>
	<path id="XMLID_00000152263089998973254980000000707993047079185597_" class="st2" d="M921.4,50.7c6.9,0,13.2,1.1,18.8,3.4   c5.6,2.3,10.3,5.5,14.3,9.8c3.9,4.3,7,9.5,9.1,15.7c2.1,6.2,3.2,13.2,3.2,21.1c0,7.9-1.1,14.9-3.3,21.1c-2.2,6.2-5.2,11.4-9.2,15.7   c-3.9,4.3-8.7,7.5-14.3,9.7c-5.6,2.2-11.8,3.3-18.6,3.3c-6.7,0-12.9-1.1-18.5-3.3c-5.6-2.2-10.3-5.4-14.3-9.7   c-4-4.2-7-9.5-9.2-15.7c-2.2-6.2-3.3-13.3-3.3-21.3c0-7.8,1.1-14.8,3.2-21.1c2.1-6.2,5.2-11.4,9.2-15.7c4-4.3,8.8-7.5,14.3-9.8   C908.5,51.8,914.6,50.7,921.4,50.7 M921.4,130.6c3.1,0,6-0.6,8.6-1.9c2.6-1.3,4.8-3.1,6.7-5.6c1.8-2.5,3.3-5.6,4.3-9.4   c1-3.7,1.5-8.1,1.5-13.1c0-4.9-0.5-9.3-1.5-13c-1-3.7-2.4-6.9-4.3-9.4c-1.9-2.5-4.1-4.4-6.7-5.7c-2.6-1.3-5.4-1.9-8.6-1.9   c-3.1,0-6,0.6-8.6,1.9c-2.6,1.2-4.8,3.1-6.7,5.7c-1.8,2.5-3.3,5.7-4.3,9.4c-1,3.7-1.5,8.1-1.5,13c0,5,0.5,9.3,1.5,13.1   c1,3.8,2.5,6.9,4.3,9.4c1.9,2.5,4.1,4.4,6.7,5.6C915.4,129.9,918.3,130.6,921.4,130.6"></path>
	
		<rect id="XMLID_00000064331282811594187130000008597729569858076091_" x="976.5" y="19.4" class="st2" width="23.5" height="129.1"></rect>
	<polygon id="XMLID_00000145041431209446886270000013010382404694065316_" class="st3" points="2.2,239.7 1.5,239.4 1.3,238.8    1.3,215 1.5,214.4 2.2,214.1 4.4,214.1 5,214.4 5.3,215 5.3,236.5 18.9,236.5 19.6,236.7 19.9,237.4 19.9,238.8 19.6,239.4    18.9,239.7  "></polygon>
	<path id="XMLID_00000157299618309683400520000003312804373499560079_" class="st3" d="M30.9,217.2l-0.7-0.2l-0.3-0.6v-2l0.3-0.6   l0.7-0.3h2.6l0.7,0.3l0.3,0.6v2l-0.3,0.6l-0.7,0.2H30.9z M31.3,239.7l-0.7-0.2l-0.3-0.6v-17.3l0.3-0.6l0.7-0.2h2l0.7,0.2l0.3,0.6   v17.3l-0.3,0.6l-0.7,0.2H31.3z"></path>
	<polygon id="XMLID_00000046340093389055683750000010994585501630742696_" class="st3" points="54.2,239.7 53.2,239.4 52.7,238.8    45.1,221.8 45,221.5 45.3,220.9 45.9,220.7 47.8,220.7 48.6,220.9 48.9,221.3 55.1,235.7 61.3,221.3 61.6,220.9 62.3,220.7    64.3,220.7 64.9,220.9 65.2,221.5 65.1,221.8 57.5,238.8 57,239.4 56,239.7  "></polygon>
	<path id="XMLID_00000062173248604490622400000003024095062572941741_" class="st3" d="M84.6,240c-2.8,0-5.1-0.8-6.8-2.3   c-1.7-1.5-2.6-3.7-2.8-6.3c0-0.3,0-0.7,0-1.2c0-0.5,0-0.9,0-1.2c0.1-1.7,0.6-3.3,1.4-4.5c0.8-1.3,1.9-2.3,3.3-3   c1.4-0.7,3-1.1,4.8-1.1c2.1,0,3.8,0.4,5.2,1.2c1.4,0.8,2.5,1.9,3.2,3.3c0.7,1.4,1.1,3.1,1.1,5v0.6l-0.3,0.6l-0.7,0.2H78.9v0.1v0.2   c0,1,0.3,1.9,0.7,2.8c0.4,0.9,1.1,1.6,1.9,2.1c0.8,0.5,1.8,0.8,2.9,0.8c1,0,1.8-0.1,2.5-0.4c0.6-0.3,1.2-0.6,1.6-0.9l0.8-0.8   l0.6-0.5l0.6-0.1h2l0.6,0.2l0.2,0.6c0,0.4-0.3,0.8-0.7,1.3c-0.4,0.5-1,1-1.7,1.5c-0.8,0.5-1.7,0.9-2.8,1.3   C87.2,239.9,85.9,240,84.6,240 M78.9,228.8h11.2v-0.1c0-1.1-0.2-2.1-0.7-2.9c-0.4-0.8-1.1-1.5-1.9-2c-0.8-0.5-1.9-0.8-3-0.8   c-1.2,0-2.2,0.3-3,0.8c-0.8,0.5-1.5,1.2-1.9,2c-0.4,0.9-0.7,1.8-0.7,2.9V228.8z"></path>
	<path id="XMLID_00000010293967662162366320000007611215701550300302_" class="st3" d="M133,240c-2.4,0-4.4-0.4-6-1.1   c-1.7-0.7-2.9-1.8-3.9-3.3c-0.9-1.5-1.4-3.4-1.5-5.6c0-1.1,0-2.1,0-3.1c0-1,0-2,0-3.1c0.1-2.2,0.6-4.1,1.6-5.6   c1-1.5,2.2-2.6,3.9-3.3c1.7-0.7,3.6-1.1,5.9-1.1c2.2,0,4.2,0.4,5.8,1.1c1.7,0.7,3,1.9,3.9,3.3c1,1.5,1.5,3.4,1.6,5.6   c0.1,1.1,0.1,2.1,0.1,3.1c0,1,0,2-0.1,3.1c-0.1,2.3-0.6,4.1-1.5,5.6c-0.9,1.5-2.2,2.6-3.9,3.3C137.3,239.7,135.3,240,133,240    M133,236.9c2.1,0,3.8-0.6,5.1-1.7c1.3-1.1,2-2.9,2.1-5.4c0.1-1.1,0.1-2.1,0.1-2.9c0-0.9,0-1.8-0.1-2.9c-0.1-1.7-0.4-3-1-4.1   c-0.6-1-1.5-1.8-2.6-2.3c-1.1-0.5-2.3-0.7-3.6-0.7c-1.4,0-2.6,0.3-3.6,0.7c-1.1,0.5-1.9,1.3-2.6,2.3c-0.6,1-1,2.4-1.1,4.1   c0,1.1,0,2,0,2.9c0,0.9,0,1.9,0,2.9c0.1,2.5,0.8,4.3,2.2,5.4C129.2,236.4,130.9,236.9,133,236.9"></path>
	<path id="XMLID_00000054976379607261409650000003593925572042642571_" class="st3" d="M157.3,239.7l-0.7-0.2l-0.3-0.6v-17.3   l0.3-0.6l0.7-0.2h1.9l0.7,0.2l0.3,0.6v1.6c0.7-0.8,1.6-1.5,2.7-2c1.1-0.5,2.5-0.8,4.1-0.8c1.8,0,3.3,0.3,4.5,1   c1.2,0.7,2.2,1.7,2.8,2.9c0.6,1.2,1,2.7,1,4.3v10.3l-0.3,0.6l-0.7,0.2h-2l-0.7-0.2l-0.3-0.6v-10.1c0-1.7-0.5-3-1.4-4   c-0.9-1-2.3-1.4-4.1-1.4c-1.7,0-3,0.5-4.1,1.4c-1,1-1.5,2.3-1.5,4v10.1l-0.2,0.6l-0.7,0.2H157.3z"></path>
	<polygon id="XMLID_00000011005444372958130530000002927961505200189075_" class="st3" points="188.7,239.7 188,239.4 187.8,238.8    187.8,214.6 188,214 188.7,213.8 190.6,213.8 191.4,214 191.6,214.6 191.6,238.8 191.4,239.4 190.6,239.7  "></polygon>
	<path id="XMLID_00000158010039300423420200000007538637818808835974_" class="st3" d="M204.9,217.2l-0.7-0.2l-0.3-0.6v-2l0.3-0.6   l0.7-0.3h2.6l0.7,0.3l0.3,0.6v2l-0.3,0.6l-0.7,0.2H204.9z M205.2,239.7l-0.7-0.2l-0.3-0.6v-17.3l0.3-0.6l0.7-0.2h2l0.7,0.2l0.3,0.6   v17.3l-0.3,0.6l-0.7,0.2H205.2z"></path>
	<path id="XMLID_00000082339757090165358570000014584388192963462540_" class="st3" d="M221.7,239.7l-0.7-0.2l-0.3-0.6v-17.3   l0.3-0.6l0.7-0.2h1.9l0.7,0.2l0.3,0.6v1.6c0.7-0.8,1.6-1.5,2.7-2c1.1-0.5,2.4-0.8,4.2-0.8c1.8,0,3.3,0.3,4.5,1   c1.2,0.7,2.2,1.7,2.8,2.9c0.6,1.2,1,2.7,1,4.3v10.3l-0.3,0.6l-0.7,0.2h-2.1l-0.7-0.2l-0.3-0.6v-10.1c0-1.7-0.5-3-1.4-4   c-0.9-1-2.3-1.4-4.1-1.4c-1.7,0-3,0.5-4.1,1.4c-1,1-1.5,2.3-1.5,4v10.1l-0.3,0.6l-0.7,0.2H221.7z"></path>
	<path id="XMLID_00000030461245262066800890000002681243344970034839_" class="st3" d="M260.6,240c-2.8,0-5.1-0.8-6.7-2.3   c-1.7-1.5-2.6-3.7-2.7-6.3c0-0.3-0.1-0.7-0.1-1.2c0-0.5,0-0.9,0.1-1.2c0.1-1.7,0.5-3.3,1.3-4.5c0.8-1.3,1.9-2.3,3.3-3   c1.4-0.7,3-1.1,4.8-1.1c2.1,0,3.8,0.4,5.2,1.2c1.4,0.8,2.5,1.9,3.2,3.3c0.7,1.4,1.1,3.1,1.1,5v0.6l-0.3,0.6l-0.7,0.2H255v0.1v0.2   c0,1,0.3,1.9,0.7,2.8c0.5,0.9,1.1,1.6,1.9,2.1c0.8,0.5,1.8,0.8,2.9,0.8c1,0,1.8-0.1,2.5-0.4c0.7-0.3,1.2-0.6,1.6-0.9l0.8-0.8   l0.6-0.5l0.7-0.1h2l0.6,0.2l0.2,0.6c0,0.4-0.2,0.8-0.7,1.3c-0.4,0.5-1,1-1.7,1.5c-0.8,0.5-1.7,0.9-2.8,1.3   C263.2,239.9,262,240,260.6,240 M255,228.8h11.2v-0.1c0-1.1-0.2-2.1-0.7-2.9c-0.5-0.8-1.1-1.5-1.9-2c-0.8-0.5-1.9-0.8-3-0.8   c-1.2,0-2.2,0.3-3,0.8c-0.8,0.5-1.5,1.2-1.9,2c-0.4,0.9-0.7,1.8-0.7,2.9V228.8z"></path>
	<path id="XMLID_00000051349040267377884770000014099469039507536032_" class="st3" d="M309.5,240c-2.3,0-4.3-0.4-5.9-1.1   c-1.7-0.7-2.9-1.8-3.8-3.3c-0.9-1.5-1.3-3.4-1.3-5.8V215l0.3-0.6l0.7-0.2h2.1l0.7,0.2l0.3,0.6v14.9c0,2.4,0.6,4.1,1.9,5.3   c1.3,1.1,3,1.7,5.2,1.7c2.2,0,3.9-0.6,5.1-1.7c1.3-1.1,1.9-2.9,1.9-5.3V215l0.3-0.6l0.7-0.2h2.1l0.7,0.2l0.3,0.6v14.8   c0,2.4-0.4,4.3-1.3,5.8c-0.9,1.5-2.2,2.6-3.8,3.3C313.8,239.7,311.8,240,309.5,240"></path>
	<path id="XMLID_00000180335471953224372830000017440142071150596493_" class="st3" d="M334.4,246.6l-0.7-0.2l-0.3-0.6v-24.2   l0.3-0.6l0.7-0.2h1.9l0.7,0.2l0.3,0.6v1.6c0.6-0.8,1.5-1.5,2.6-2c1.1-0.5,2.5-0.8,4.1-0.8c1.5,0,2.8,0.2,3.9,0.7   c1.1,0.5,2,1.1,2.7,1.9c0.7,0.8,1.2,1.7,1.6,2.7c0.4,1,0.6,2.1,0.6,3.3c0,0.4,0,0.8,0,1.2l0,1.2c-0.1,1.2-0.3,2.2-0.6,3.3   c-0.3,1-0.9,2-1.6,2.7c-0.7,0.8-1.6,1.4-2.7,1.9c-1.1,0.5-2.4,0.7-3.9,0.7c-1.6,0-2.9-0.3-4-0.8c-1.1-0.5-2-1.2-2.6-2v8.5l-0.3,0.6   l-0.6,0.2H334.4z M343.1,237.1c1.4,0,2.5-0.3,3.3-0.8c0.8-0.6,1.4-1.3,1.7-2.2c0.4-0.9,0.6-1.8,0.6-2.9c0-0.7,0-1.4,0-2.1   c-0.1-1-0.3-2-0.6-2.9c-0.4-0.9-0.9-1.6-1.7-2.2c-0.8-0.5-1.9-0.8-3.3-0.8c-1.3,0-2.4,0.3-3.3,0.8c-0.8,0.6-1.4,1.3-1.8,2.1   c-0.4,0.9-0.6,1.8-0.7,2.6c0,0.4,0,0.9,0,1.4c0,0.5,0,1,0,1.4c0,0.9,0.3,1.7,0.7,2.5c0.4,0.8,1,1.5,1.9,2   C340.7,236.8,341.8,237.1,343.1,237.1"></path>
	<path id="XMLID_00000159468396241554017040000010318831720635016848_" class="st3" d="M371.7,240c-1.5,0-2.8-0.2-3.9-0.5   c-1.1-0.3-2-0.7-2.7-1.2c-0.7-0.5-1.2-1-1.5-1.5c-0.3-0.5-0.5-0.9-0.6-1.2l0.3-0.6l0.7-0.2h1.8l0.3,0.1l0.4,0.3l1.2,1   c0.4,0.3,1,0.6,1.6,0.8c0.7,0.2,1.5,0.3,2.4,0.3c1.4,0,2.5-0.2,3.4-0.7c0.9-0.5,1.4-1.2,1.4-2.1c0-0.6-0.2-1.1-0.6-1.5   c-0.4-0.4-1-0.7-2-1c-0.9-0.3-2.2-0.6-3.9-0.9c-1.6-0.3-2.9-0.8-3.9-1.3c-0.9-0.5-1.6-1.1-2.1-1.8c-0.4-0.7-0.6-1.5-0.6-2.3   c0-0.9,0.3-1.8,0.9-2.6c0.6-0.8,1.5-1.5,2.6-2.1c1.2-0.5,2.6-0.8,4.4-0.8c1.4,0,2.6,0.2,3.6,0.5c1,0.3,1.8,0.7,2.5,1.2   c0.7,0.5,1.2,0.9,1.5,1.4c0.3,0.5,0.5,0.8,0.5,1.2l-0.2,0.6l-0.7,0.2H377l-0.4-0.1l-0.4-0.3l-1-1c-0.3-0.3-0.8-0.6-1.4-0.8   c-0.6-0.2-1.3-0.3-2.3-0.3c-1.4,0-2.4,0.3-3.1,0.8c-0.7,0.5-1,1.2-1,1.9c0,0.5,0.1,0.9,0.5,1.2c0.3,0.4,0.9,0.7,1.7,1   c0.8,0.3,2.1,0.6,3.8,1c1.8,0.3,3.2,0.7,4.3,1.3c1,0.5,1.8,1.2,2.2,1.9c0.4,0.7,0.7,1.5,0.7,2.4c0,1-0.3,2-1,2.8   c-0.7,0.8-1.6,1.5-2.9,2C375.2,239.8,373.6,240,371.7,240"></path>
	<polygon id="XMLID_00000160897542249638131230000001753392880378195606_" class="st3" points="392.7,239.7 392,239.4 391.8,238.8    391.8,214.6 392,214 392.7,213.8 394.6,213.8 395.3,214 395.6,214.6 395.6,227.3 403.6,221.3 404.4,220.8 405.3,220.7 407.4,220.7    408.1,220.9 408.3,221.5 408.2,221.8 407.8,222.1 398.4,229.2 408.8,238.2 409.3,238.9 409.1,239.5 408.5,239.7 406.4,239.7    405.4,239.5 404.7,239.1 395.6,231.3 395.6,238.8 395.3,239.4 394.6,239.7  "></polygon>
	<path id="XMLID_00000175287562633050638420000004692455703501101489_" class="st3" d="M420,217.2l-0.7-0.2l-0.3-0.6v-2l0.3-0.6   l0.7-0.3h2.6l0.7,0.3l0.3,0.6v2l-0.3,0.6l-0.7,0.2H420z M420.3,239.7l-0.7-0.2l-0.3-0.6v-17.3l0.3-0.6l0.7-0.2h2l0.7,0.2l0.3,0.6   v17.3l-0.3,0.6l-0.7,0.2H420.3z"></path>
	<polygon id="XMLID_00000177454661434809847150000004943106914941277628_" class="st3" points="436.8,239.7 436.2,239.4    435.9,238.8 435.9,214.6 436.2,214 436.8,213.8 438.8,213.8 439.5,214 439.7,214.6 439.7,238.8 439.5,239.4 438.8,239.7  "></polygon>
	<polygon id="XMLID_00000103954240291302621930000007648615884069111716_" class="st3" points="453.4,239.7 452.7,239.4    452.4,238.8 452.4,214.6 452.7,214 453.4,213.8 455.3,213.8 456,214 456.2,214.6 456.2,238.8 456,239.4 455.3,239.7  "></polygon>
	<path id="XMLID_00000123412691867985240880000001387994756924029628_" class="st3" d="M469.5,217.2l-0.7-0.2l-0.3-0.6v-2l0.3-0.6   l0.7-0.3h2.6l0.7,0.3l0.3,0.6v2l-0.3,0.6l-0.7,0.2H469.5z M469.8,239.7l-0.7-0.2l-0.3-0.6v-17.3l0.3-0.6l0.7-0.2h2l0.7,0.2l0.3,0.6   v17.3l-0.3,0.6l-0.7,0.2H469.8z"></path>
	<path id="XMLID_00000165933970064280872830000011380448907088724154_" class="st3" d="M486.3,239.7l-0.7-0.2l-0.3-0.6v-17.3   l0.3-0.6l0.7-0.2h1.9l0.7,0.2l0.3,0.6v1.6c0.7-0.8,1.6-1.5,2.7-2c1.1-0.5,2.5-0.8,4.2-0.8c1.8,0,3.3,0.3,4.5,1   c1.2,0.7,2.2,1.7,2.8,2.9c0.6,1.2,1,2.7,1,4.3v10.3l-0.3,0.6l-0.7,0.2h-2.1l-0.7-0.2l-0.3-0.6v-10.1c0-1.7-0.5-3-1.4-4   c-0.9-1-2.3-1.4-4.1-1.4c-1.7,0-3.1,0.5-4.1,1.4c-1,1-1.5,2.3-1.5,4v10.1l-0.3,0.6l-0.7,0.2H486.3z"></path>
	<path id="XMLID_00000139285275107012512490000014281897719006041229_" class="st3" d="M525.4,247.7c-1.8,0-3.4-0.2-4.6-0.7   c-1.2-0.4-2.1-1-2.8-1.6c-0.7-0.6-1.1-1.2-1.4-1.9c-0.3-0.6-0.4-1.1-0.5-1.5l0.3-0.6l0.7-0.3h2l0.6,0.1l0.4,0.6   c0.2,0.4,0.4,0.8,0.7,1.2c0.3,0.4,0.8,0.8,1.5,1.2c0.7,0.3,1.6,0.5,2.9,0.5c1.3,0,2.4-0.2,3.2-0.5c0.9-0.3,1.5-0.8,2-1.6   c0.4-0.8,0.7-1.8,0.7-3.1v-2.5c-0.6,0.8-1.5,1.4-2.6,1.9c-1.1,0.5-2.4,0.7-4,0.7c-1.5,0-2.8-0.2-3.9-0.7c-1.1-0.5-2-1.1-2.7-1.9   c-0.7-0.8-1.2-1.7-1.6-2.8c-0.3-1-0.5-2.1-0.6-3.3c0-0.7,0-1.4,0-2c0.1-1.1,0.3-2.2,0.6-3.3c0.3-1,0.9-2,1.6-2.8   c0.7-0.8,1.6-1.5,2.7-2c1.1-0.5,2.4-0.7,3.9-0.7c1.6,0,3,0.3,4.1,0.8c1.1,0.5,2,1.2,2.7,2v-1.6l0.3-0.6l0.7-0.3h1.9l0.7,0.3   l0.3,0.6v17.7c0,1.6-0.3,3.1-0.9,4.3c-0.6,1.3-1.6,2.3-3,3C529.7,247.3,527.8,247.7,525.4,247.7 M525.3,236.9   c1.4,0,2.5-0.3,3.3-0.8c0.8-0.6,1.5-1.3,1.9-2.1c0.4-0.9,0.6-1.7,0.6-2.6c0-0.3,0-0.8,0-1.3c0-0.5,0-0.9,0-1.3   c0-0.9-0.2-1.7-0.6-2.6c-0.4-0.9-1-1.6-1.9-2.1c-0.8-0.6-1.9-0.9-3.3-0.9c-1.4,0-2.5,0.3-3.3,0.8c-0.8,0.5-1.4,1.3-1.8,2.2   c-0.3,0.9-0.5,1.8-0.6,2.9c0,0.6,0,1.3,0,1.9c0.1,1,0.3,2,0.6,2.9c0.4,0.9,1,1.6,1.8,2.2C522.9,236.6,523.9,236.9,525.3,236.9"></path>
	<path id="XMLID_00000114056064881930100520000013565049340168212154_" class="st3" d="M562.9,239.7l-0.6-0.2l-0.3-0.5l0-0.4   l10.2-23.6l0.5-0.6l0.8-0.2h2.8l0.9,0.2l0.4,0.6l10.1,23.6l0.1,0.4l-0.2,0.5l-0.6,0.2h-2.1l-0.7-0.2l-0.3-0.4l-2.3-5.2h-13.4   l-2.2,5.2l-0.3,0.4l-0.7,0.2H562.9z M569.4,230.7h11.1l-5.5-13L569.4,230.7z"></path>
	<path id="XMLID_00000041282480454724646730000015975688257807873678_" class="st3" d="M606.8,240c-1.9,0-3.6-0.3-5-1   c-1.4-0.7-2.5-1.6-3.3-2.9c-0.8-1.3-1.2-2.8-1.2-4.5c0-0.4-0.1-0.8-0.1-1.4c0-0.6,0-1.1,0.1-1.5c0.1-1.8,0.5-3.3,1.2-4.5   c0.8-1.2,1.8-2.2,3.3-2.9c1.4-0.7,3.1-1,5-1c1.6,0,2.9,0.2,4.1,0.6c1.1,0.4,2.1,0.9,2.8,1.5c0.7,0.6,1.3,1.3,1.7,2   c0.4,0.7,0.6,1.4,0.6,2l-0.2,0.6l-0.7,0.2h-2l-0.6-0.2l-0.4-0.6c-0.5-1.2-1.2-2-2-2.5c-0.9-0.5-1.9-0.7-3.2-0.7c-1.6,0-3,0.5-4,1.4   c-1,0.9-1.6,2.3-1.7,4.3c0,0.9,0,1.7,0,2.6c0.1,2,0.7,3.5,1.7,4.4c1,0.9,2.4,1.3,4,1.3c1.3,0,2.3-0.2,3.2-0.7   c0.9-0.5,1.5-1.3,2-2.5l0.4-0.6l0.6-0.2h2l0.7,0.2l0.2,0.6c0,0.5-0.1,1-0.4,1.6c-0.2,0.5-0.6,1.1-1,1.6c-0.5,0.6-1.1,1-1.8,1.5   c-0.7,0.4-1.5,0.8-2.5,1C609.2,239.9,608.1,240,606.8,240"></path>
	<path id="XMLID_00000026858436526284234470000006675372987913914302_" class="st3" d="M633.3,240c-1.4,0-2.6-0.2-3.7-0.7   c-1.1-0.5-2-1.1-2.7-2c-0.7-0.8-1-1.8-1-2.8c0-1.7,0.8-3,2.3-4c1.5-1,3.5-1.7,6-2l6.1-0.8v-1.1c0-1.2-0.4-2.1-1.1-2.7   c-0.8-0.7-2-1-3.7-1c-1.2,0-2.2,0.2-2.9,0.7c-0.8,0.4-1.3,1-1.6,1.7l-0.9,0.6h-1.8l-0.7-0.2l-0.2-0.6c0-0.4,0.1-0.8,0.5-1.3   c0.3-0.5,0.8-1.1,1.5-1.6c0.7-0.5,1.5-0.9,2.5-1.3c1-0.4,2.3-0.5,3.8-0.5c1.6,0,3,0.2,4.1,0.6c1.1,0.4,2,0.9,2.6,1.5   c0.7,0.6,1.1,1.3,1.4,2.1c0.3,0.8,0.4,1.6,0.4,2.5v11.8l-0.3,0.6l-0.7,0.2h-1.9l-0.7-0.2l-0.3-0.6v-1.6c-0.4,0.4-0.8,0.9-1.4,1.3   c-0.6,0.4-1.3,0.8-2.2,1.1C635.7,239.9,634.6,240,633.3,240 M634.1,237.3c1.1,0,2.1-0.2,3.1-0.6c0.9-0.4,1.7-1.1,2.2-2   c0.5-0.9,0.8-2,0.8-3.4v-1l-4.7,0.6c-1.9,0.2-3.4,0.7-4.4,1.2c-1,0.6-1.5,1.3-1.5,2.2c0,0.7,0.2,1.2,0.7,1.7c0.5,0.5,1,0.8,1.7,1   C632.7,237.2,633.4,237.3,634.1,237.3"></path>
	<path id="XMLID_00000097478226173823661450000001928709032492481712_" class="st3" d="M664.3,240c-1.5,0-2.8-0.2-3.9-0.7   c-1.1-0.5-2-1.1-2.7-1.9c-0.7-0.8-1.2-1.7-1.6-2.8c-0.3-1-0.5-2.2-0.6-3.3l-0.1-1.1l0.1-1.1c0-1.1,0.2-2.2,0.6-3.3   c0.3-1,0.9-2,1.6-2.8c0.7-0.8,1.6-1.5,2.7-2c1.1-0.5,2.4-0.7,3.9-0.7c1.6,0,2.9,0.3,4,0.8c1.1,0.5,1.9,1.1,2.6,1.9v-8.4l0.3-0.6   l0.7-0.2h2l0.7,0.2l0.3,0.6v24.2l-0.3,0.6l-0.7,0.2H672l-0.7-0.2l-0.3-0.6v-1.5c-0.7,0.8-1.6,1.4-2.7,2   C667.3,239.8,665.9,240,664.3,240 M665.1,237.1c1.4,0,2.5-0.3,3.3-0.8c0.8-0.6,1.4-1.3,1.8-2.1c0.4-0.9,0.6-1.7,0.7-2.6   c0-0.4,0-0.9,0-1.4c0-0.5,0-1,0-1.4c0-0.8-0.3-1.7-0.7-2.5c-0.4-0.8-1-1.5-1.9-2c-0.8-0.5-1.9-0.8-3.2-0.8c-1.4,0-2.5,0.3-3.3,0.8   c-0.8,0.5-1.4,1.3-1.7,2.2c-0.4,0.9-0.6,1.8-0.6,2.9c0,0.7,0,1.4,0,2.1c0.1,1,0.3,2,0.6,2.9c0.3,0.9,0.9,1.6,1.7,2.2   C662.6,236.8,663.7,237.1,665.1,237.1"></path>
	<path id="XMLID_00000055673426980490318780000006315623659982029744_" class="st3" d="M695.9,240c-2.8,0-5.1-0.8-6.7-2.3   c-1.7-1.5-2.6-3.7-2.7-6.3c0-0.3-0.1-0.7-0.1-1.2c0-0.5,0-0.9,0.1-1.2c0.1-1.7,0.5-3.3,1.4-4.5c0.8-1.3,1.9-2.3,3.3-3   c1.4-0.7,3-1.1,4.8-1.1c2.1,0,3.8,0.4,5.2,1.2c1.4,0.8,2.5,1.9,3.2,3.3c0.7,1.4,1.1,3.1,1.1,5v0.6l-0.3,0.6l-0.7,0.2h-14.2v0.1v0.2   c0.1,1,0.3,1.9,0.7,2.8c0.4,0.9,1.1,1.6,1.9,2.1c0.8,0.5,1.8,0.8,2.9,0.8c1,0,1.8-0.1,2.4-0.4c0.7-0.3,1.2-0.6,1.6-0.9l0.8-0.8   l0.6-0.5l0.7-0.1h2l0.6,0.2l0.2,0.6c0,0.4-0.2,0.8-0.7,1.3c-0.4,0.5-1,1-1.7,1.5c-0.7,0.5-1.7,0.9-2.8,1.3   C698.5,239.9,697.3,240,695.9,240 M690.3,228.8h11.2v-0.1c0-1.1-0.2-2.1-0.7-2.9c-0.4-0.8-1.1-1.5-1.9-2c-0.9-0.5-1.9-0.8-3-0.8   c-1.2,0-2.2,0.3-3,0.8c-0.8,0.5-1.5,1.2-1.9,2c-0.4,0.9-0.7,1.8-0.7,2.9V228.8z"></path>
	<path id="XMLID_00000008870603537169957530000011276022917221925765_" class="st3" d="M717.7,239.7l-0.7-0.2l-0.3-0.6v-17.3   l0.3-0.6l0.7-0.2h1.8l0.7,0.2l0.3,0.6v1.3c0.6-0.7,1.4-1.4,2.4-1.8c1-0.5,2.1-0.7,3.4-0.7c3.1,0,5.3,1.1,6.6,3.4   c0.6-1,1.6-1.8,2.7-2.4c1.2-0.6,2.6-0.9,4.1-0.9c1.4,0,2.7,0.3,3.9,0.9c1.2,0.6,2.1,1.5,2.7,2.6c0.7,1.2,1,2.7,1,4.4v10.5l-0.3,0.6   l-0.7,0.2h-1.9l-0.7-0.2l-0.3-0.6v-10.2c0-1.4-0.2-2.4-0.6-3.2c-0.4-0.8-1-1.3-1.8-1.6c-0.7-0.3-1.5-0.5-2.4-0.5   c-0.7,0-1.4,0.2-2.2,0.5c-0.7,0.3-1.3,0.9-1.8,1.6c-0.5,0.8-0.7,1.8-0.7,3.2v10.2l-0.3,0.6l-0.7,0.2h-1.9l-0.7-0.2l-0.3-0.6v-10.2   c0-1.4-0.2-2.4-0.7-3.2c-0.5-0.8-1.1-1.3-1.8-1.6c-0.7-0.3-1.5-0.5-2.3-0.5c-0.7,0-1.4,0.2-2.2,0.5c-0.7,0.3-1.3,0.9-1.8,1.6   c-0.5,0.8-0.7,1.8-0.7,3.2v10.3l-0.3,0.6l-0.7,0.2H717.7z"></path>
	<polygon id="XMLID_00000082328551273075531630000004049894749643013519_" class="st3" points="763.4,246.6 762.9,246.4    762.6,245.9 762.7,245.6 762.8,245.2 766,238.5 758.2,222.1 758,221.5 758.2,220.9 758.8,220.7 760.8,220.7 761.5,220.9    761.8,221.3 768,234.6 774.4,221.3 774.8,220.9 775.4,220.7 777.4,220.7 778,220.9 778.2,221.4 778,222.1 766.4,246 766,246.4    765.4,246.6  "></polygon>
	<polygon id="XMLID_00000072997274509726154860000002910006513655599517_" class="st3" points="806.9,239.7 806.2,239.4 806,238.8    806,215 806.2,214.4 806.9,214.1 823.6,214.1 824.4,214.4 824.6,215 824.6,216.5 824.4,217.1 823.6,217.3 810,217.3 810,225.8    822.8,225.8 823.5,226 823.8,226.7 823.8,228.1 823.5,228.7 822.8,229 810,229 810,238.8 809.7,239.4 809,239.7  "></polygon>
	<path id="XMLID_00000116228469644235997160000007696353677345924520_" class="st3" d="M844.6,240c-2.1,0-3.8-0.4-5.2-1.1   c-1.4-0.7-2.5-1.7-3.2-2.9c-0.8-1.3-1.2-2.7-1.2-4.3c0-0.4,0-0.9,0-1.6c0-0.7,0-1.2,0-1.6c0.1-1.6,0.5-3.1,1.2-4.3   c0.8-1.2,1.8-2.2,3.2-2.9c1.4-0.7,3.1-1.1,5.2-1.1c2,0,3.8,0.4,5.2,1.1c1.4,0.7,2.5,1.7,3.2,2.9c0.7,1.2,1.2,2.7,1.2,4.3   c0,0.4,0,0.9,0,1.6c0,0.6,0,1.2,0,1.6c-0.1,1.6-0.5,3-1.2,4.3c-0.7,1.3-1.8,2.2-3.2,2.9C848.4,239.7,846.7,240,844.6,240    M844.6,237.2c1.7,0,3-0.5,4.1-1.4c1-1,1.6-2.4,1.6-4.2c0.1-0.4,0.1-0.8,0.1-1.4c0-0.6,0-1-0.1-1.4c-0.1-1.8-0.6-3.3-1.6-4.2   c-1-1-2.4-1.4-4.1-1.4c-1.7,0-3,0.5-4.1,1.4c-1,1-1.6,2.4-1.6,4.2c0,0.4,0,0.8,0,1.4c0,0.6,0,1,0,1.4c0,1.9,0.6,3.2,1.6,4.2   C841.6,236.7,842.9,237.2,844.6,237.2"></path>
	<path id="XMLID_00000005262932628236866610000017130695275763673524_" class="st3" d="M866.8,239.7l-0.7-0.2l-0.3-0.6v-17.3   l0.3-0.6l0.7-0.3h1.9l0.7,0.3l0.3,0.6v1.6c0.5-0.8,1.3-1.4,2.2-1.8c1-0.4,2.1-0.6,3.5-0.6h1.6l0.7,0.2l0.3,0.6v1.5l-0.3,0.6   l-0.7,0.2h-2.5c-1.5,0-2.6,0.4-3.5,1.1c-0.9,0.8-1.3,1.8-1.3,3.1v10.7l-0.3,0.6l-0.7,0.2H866.8z"></path>
	<path id="XMLID_00000011719747737980756110000012716160838367895464_" class="st3" d="M906,239.7l-0.7-0.2l-0.2-0.6V215l0.2-0.6   l0.7-0.2h2.1l0.7,0.2l0.3,0.6v9l10.9-9.3l0.5-0.4l1-0.2h2.2l0.6,0.2l0.2,0.5l-0.2,0.5l-12.7,11l13.5,12.1l0.2,0.5l-0.3,0.5   l-0.6,0.2h-2.3c-0.5,0-0.8-0.1-1.1-0.2l-0.5-0.4l-11.7-10.3v10l-0.3,0.6l-0.7,0.2H906z"></path>
	<path id="XMLID_00000143619367428688360950000001189968710484877498_" class="st3" d="M936.3,217.2l-0.7-0.2l-0.3-0.6v-2l0.3-0.6   l0.7-0.3h2.6l0.7,0.3l0.3,0.6v2l-0.3,0.6l-0.7,0.2H936.3z M936.6,239.7l-0.7-0.2l-0.2-0.6v-17.3l0.2-0.6l0.7-0.2h2l0.7,0.2l0.3,0.6   v17.3l-0.3,0.6l-0.7,0.2H936.6z"></path>
	<path id="XMLID_00000045577296162282412260000018290198190833976203_" class="st3" d="M959.9,240c-1.5,0-2.8-0.2-3.9-0.7   c-1.1-0.5-2-1.1-2.7-1.9c-0.7-0.8-1.2-1.7-1.6-2.8c-0.3-1-0.5-2.2-0.6-3.3l-0.1-1.1l0.1-1.1c0-1.1,0.2-2.2,0.6-3.3   c0.3-1,0.9-2,1.6-2.8c0.7-0.8,1.6-1.5,2.7-2c1.1-0.5,2.4-0.7,3.9-0.7c1.6,0,2.9,0.3,4,0.8c1.1,0.5,1.9,1.1,2.6,1.9v-8.4l0.3-0.6   l0.7-0.2h2l0.7,0.2l0.3,0.6v24.2l-0.3,0.6l-0.7,0.2h-1.9l-0.7-0.2l-0.3-0.6v-1.5c-0.7,0.8-1.6,1.4-2.7,2   C962.9,239.8,961.6,240,959.9,240 M960.8,237.1c1.4,0,2.4-0.3,3.3-0.8c0.8-0.6,1.4-1.3,1.8-2.1c0.4-0.9,0.6-1.7,0.7-2.6   c0-0.4,0-0.9,0-1.4c0-0.5,0-1,0-1.4c0-0.8-0.2-1.7-0.7-2.5c-0.4-0.8-1.1-1.5-1.9-2c-0.8-0.5-1.9-0.8-3.2-0.8   c-1.4,0-2.5,0.3-3.3,0.8c-0.8,0.5-1.4,1.3-1.8,2.2c-0.3,0.9-0.6,1.8-0.6,2.9c0,0.7,0,1.4,0,2.1c0.1,1,0.3,2,0.6,2.9   c0.3,0.9,0.9,1.6,1.8,2.2C958.3,236.8,959.4,237.1,960.8,237.1"></path>
	<path id="XMLID_00000165233594605516390700000003195486195910673313_" class="st3" d="M990.4,240c-1.5,0-2.8-0.2-3.9-0.5   c-1.1-0.3-2-0.7-2.7-1.2c-0.7-0.5-1.2-1-1.5-1.5c-0.4-0.5-0.5-0.9-0.6-1.2l0.3-0.6l0.7-0.2h1.8l0.3,0.1l0.4,0.3l1.2,1   c0.4,0.3,1,0.6,1.6,0.8c0.6,0.2,1.4,0.3,2.4,0.3c1.4,0,2.5-0.2,3.4-0.7c0.9-0.5,1.4-1.2,1.4-2.1c0-0.6-0.2-1.1-0.5-1.5   c-0.4-0.4-1-0.7-2-1c-1-0.3-2.2-0.6-3.9-0.9c-1.6-0.3-2.9-0.8-3.9-1.3c-1-0.5-1.6-1.1-2-1.8c-0.4-0.7-0.6-1.5-0.6-2.3   c0-0.9,0.3-1.8,0.9-2.6c0.6-0.8,1.5-1.5,2.7-2.1c1.1-0.5,2.6-0.8,4.4-0.8c1.4,0,2.6,0.2,3.6,0.5c1,0.3,1.9,0.7,2.5,1.2   c0.6,0.5,1.1,0.9,1.5,1.4c0.3,0.5,0.5,0.8,0.5,1.2l-0.2,0.6l-0.7,0.2h-1.7l-0.5-0.1l-0.3-0.3l-1-1c-0.4-0.3-0.9-0.6-1.4-0.8   c-0.6-0.2-1.3-0.3-2.3-0.3c-1.4,0-2.4,0.3-3.1,0.8c-0.7,0.5-1,1.2-1,1.9c0,0.5,0.2,0.9,0.5,1.2c0.3,0.4,0.9,0.7,1.7,1   c0.8,0.3,2.1,0.6,3.8,1c1.8,0.3,3.2,0.7,4.2,1.3c1,0.5,1.8,1.2,2.2,1.9c0.4,0.7,0.6,1.5,0.6,2.4c0,1-0.3,2-1,2.8   c-0.6,0.8-1.6,1.5-2.9,2C993.9,239.8,992.3,240,990.4,240"></path>
</g>
</svg>